<?xml version="1.0" encoding="utf-8"?>
<!-- Generator: Adobe Illustrator 24.1.2, SVG Export Plug-In . SVG Version: 6.00 Build 0)  -->
<svg version="1.1" id="Capa_1" xmlns="http://www.w3.org/2000/svg" xmlns:xlink="http://www.w3.org/1999/xlink" x="0px" y="0px"
	 viewBox="0 0 53 49" style="enable-background:new 0 0 53 49;" xml:space="preserve">
<style type="text/css">
	.st0{fill-rule:evenodd;clip-rule:evenodd;fill:#5ED7C6;}
	.st1{enable-background:new    ;}
	.st2{fill:#FFFFFF;}
</style>
<g>
	<polygon id="Fill-1" class="st0" points="0,0 0,48.8 48.8,48.8 48.8,38.3 45.3,38.3 45.3,45.3 3.5,45.3 3.5,3.5 34.9,3.5 
		34.9,13.9 45.3,13.9 45.3,20.9 48.8,20.9 48.8,10.5 38.3,0 	"/>
	<g id="Group-4" transform="translate(7.000000, 16.000000)">
		<g id="Clip-3">
		</g>
		<g class="st1">
			<path class="st2" d="M11,18.6c-0.4,0.5-1,0.9-1.8,1.2c-0.8,0.3-1.6,0.4-2.6,0.4S4.8,20,4,19.6s-1.3-1.1-1.7-1.9s-0.6-1.8-0.6-2.9
				V14c0-1.1,0.2-2.1,0.6-2.9s0.9-1.5,1.7-2c0.7-0.4,1.6-0.7,2.5-0.7c1.3,0,2.4,0.3,3.2,1c0.8,0.6,1.2,1.6,1.4,2.8H8.7
				c-0.1-0.7-0.3-1.1-0.7-1.4c-0.4-0.3-0.8-0.5-1.5-0.5c-0.8,0-1.4,0.3-1.8,0.9c-0.4,0.6-0.6,1.5-0.6,2.7v0.7c0,1.2,0.2,2.1,0.7,2.7
				s1.1,0.9,2,0.9s1.5-0.2,1.9-0.6v-2H6.5V14H11V18.6z"/>
			<path class="st2" d="M15.4,20h-2.3V8.6h2.3V20z"/>
			<path class="st2" d="M24.4,15.4h-4.5V20h-2.3V8.6H25v1.9h-5.1v2.9h4.5V15.4z"/>
			<path class="st2" d="M35.6,14.6c0,1.1-0.1,2.1-0.5,2.9c-0.4,0.8-1,1.5-1.7,2s-1.6,0.7-2.5,0.7s-1.8-0.2-2.5-0.7s-1.3-1.1-1.7-1.9
				s-0.7-1.9-0.7-3V14c0-1.1,0.2-2.1,0.6-3s1-1.5,1.7-2s1.6-0.7,2.5-0.7s1.8,0.2,2.5,0.7s1.3,1.1,1.7,2s0.6,1.8,0.6,2.9V14.6
				L35.6,14.6z M33.3,14.1c0-1.2-0.2-2.1-0.6-2.7c-0.4-0.6-1-0.9-1.8-0.9s-1.4,0.3-1.8,0.9c-0.4,0.6-0.6,1.5-0.6,2.7v0.6
				c0,1.2,0.2,2.1,0.6,2.7s1,1,1.8,1s1.4-0.3,1.8-0.9s0.6-1.5,0.6-2.7V14.1z"/>
			<path class="st2" d="M43.3,17c0-0.4-0.2-0.8-0.5-1s-0.9-0.5-1.7-0.8s-1.5-0.5-1.9-0.8c-1.3-0.7-1.9-1.6-1.9-2.8
				c0-0.6,0.2-1.2,0.5-1.6c0.3-0.5,0.8-0.9,1.5-1.1s1.4-0.4,2.2-0.4s1.5,0.1,2.2,0.4c0.6,0.3,1.1,0.7,1.5,1.2s0.5,1.1,0.5,1.8h-2.3
				c0-0.5-0.2-0.9-0.5-1.2s-0.8-0.4-1.4-0.4c-0.6,0-1,0.1-1.3,0.4c-0.3,0.2-0.5,0.6-0.5,1s0.2,0.7,0.6,0.9c0.4,0.3,0.9,0.5,1.6,0.7
				c1.3,0.4,2.3,0.9,2.9,1.5s0.9,1.3,0.9,2.2c0,1-0.4,1.8-1.1,2.3c-0.7,0.6-1.7,0.8-3,0.8c-0.9,0-1.7-0.2-2.4-0.5s-1.3-0.8-1.6-1.3
				c-0.4-0.6-0.6-1.2-0.6-1.9h2.4c0,1.3,0.8,1.9,2.3,1.9c0.6,0,1-0.1,1.3-0.3S43.3,17.4,43.3,17z"/>
		</g>
	</g>
</g>
</svg>
